<svg xmlns="http://www.w3.org/2000/svg" width="800" height="460" viewBox="0 0 800 460"><rect width="800" height="460" fill="white"/><style>text{font-family:Arial,sans-serif;fill:#222}.axis{stroke:#333;stroke-width:1}.grid{stroke:#ddd;stroke-width:1}.curve{fill:none;stroke:#2563eb;stroke-width:3}.dash{stroke:#dc2626;stroke-width:2;stroke-dasharray:7 5}</style><line class="grid" x1="75" y1="400" x2="775" y2="400"/><line class="grid" x1="75" y1="329.8" x2="775" y2="329.8"/><line class="grid" x1="75" y1="259.6" x2="775" y2="259.6"/><line class="grid" x1="75" y1="189.4" x2="775" y2="189.4"/><line class="grid" x1="75" y1="119.2" x2="775" y2="119.2"/><line class="grid" x1="75" y1="49" x2="775" y2="49"/><line class="axis" x1="75" y1="400" x2="775" y2="400"/><line class="axis" x1="75" y1="35" x2="75" y2="400"/><path class="curve" d="M75,400 L110,350.2 L145,307.5 L180,270.8 L215,239.3 L250,212.3 L285,189.1 L320,169.2 L355,152.2 L390,137.5 L425,125 L460,114.2 L495,105 L530,97 L565,90.2 L600,84.4 L635,79.4 L670,75.1 L705,71.4 L740,68.2 L775,65.5"/><line class="dash" x1="75" y1="147.3" x2="775" y2="147.3"/><line class="dash" x1="366.1" y1="35" x2="366.1" y2="400"/><text x="400" y="22" text-anchor="middle" font-size="20" font-weight="bold">Ideal RC Charging and Threshold Crossing</text><text x="375" y="58" font-size="14">threshold crossing ≈ 0.624 s</text><text x="400" y="445" text-anchor="middle" font-size="14">Time [s]</text><text x="18" y="230" text-anchor="middle" font-size="14" transform="rotate(-90 18 230)">Voltage [V]</text><text x="63" y="405" text-anchor="end" font-size="13">0</text><text x="63" y="335" text-anchor="end" font-size="13">1</text><text x="63" y="265" text-anchor="end" font-size="13">2</text><text x="63" y="195" text-anchor="end" font-size="13">3</text><text x="63" y="125" text-anchor="end" font-size="13">4</text><text x="63" y="54" text-anchor="end" font-size="13">5</text></svg>